<svg width="22" height="22" viewBox="0 0 22 22" fill="none" xmlns="http://www.w3.org/2000/svg">
<circle cx="11" cy="11" r="10.5" stroke="white"/>
<g clip-path="url(#clip0_2145_201)">
<path d="M9.52102 9.16742C9.44719 9.07719 9.33345 9.03015 9.21697 9.04055C9.10103 9.05148 8.99767 9.11984 8.94244 9.22265L4.99234 16.5273C4.92124 16.6585 4.94148 16.8204 5.04265 16.9303C5.11046 17.0041 5.20452 17.0435 5.30077 17.0435C5.3478 17.0435 5.39538 17.0342 5.44023 17.0145L12.7618 13.8263C12.8624 13.7825 12.9368 13.6939 12.9625 13.5878C12.9882 13.4812 12.9625 13.3685 12.893 13.2838L9.52102 9.16742Z" fill="white"/>
<path d="M10.2397 7.63628C10.337 8.02401 10.3195 8.4462 10.1905 8.82406C10.1281 9.00671 10.2255 9.20578 10.4087 9.26812C10.4459 9.28124 10.4841 9.28671 10.5219 9.28671C10.6673 9.28671 10.8035 9.19538 10.8533 9.04991C11.0255 8.54569 11.049 7.98296 10.9189 7.4657C10.7893 6.94835 10.5027 6.46382 10.1128 6.10011C9.9717 5.96831 9.74967 5.97597 9.61842 6.11761C9.48662 6.25871 9.49428 6.48074 9.63592 6.61199C9.9285 6.88433 10.1429 7.24854 10.2402 7.63574L10.2397 7.63628Z" fill="white"/>
<path d="M13.2768 11.8111C13.0838 11.8198 12.9345 11.9839 12.9438 12.1769C12.9525 12.37 13.116 12.5198 13.3096 12.51C14.0534 12.4761 14.8146 12.767 15.3451 13.2898C15.4135 13.3571 15.5021 13.3905 15.5912 13.3905C15.6814 13.3905 15.7717 13.3555 15.8406 13.2866C15.9762 13.1488 15.9751 12.9273 15.8373 12.7916C15.1707 12.1337 14.2153 11.7662 13.278 11.8105L13.2768 11.8111Z" fill="white"/>
<path d="M12.2498 8.70912C12.311 8.75233 12.3816 8.77311 12.451 8.77311C12.5609 8.77311 12.6692 8.7217 12.7376 8.62491C13.2205 7.93913 13.5059 7.13461 13.5623 6.29799C13.5754 6.10494 13.4294 5.93814 13.2363 5.92557C13.0427 5.91189 12.8765 6.05846 12.8639 6.25151C12.8163 6.96026 12.5746 7.64171 12.1655 8.22248C12.054 8.38053 12.0923 8.59873 12.2498 8.71028L12.2498 8.70912Z" fill="white"/>
<path d="M13.9555 10.5487C13.9807 10.5487 14.0069 10.546 14.0326 10.54C14.7501 10.3792 15.4874 10.3169 16.2245 10.3535C16.4202 10.365 16.5821 10.2146 16.592 10.0216C16.6018 9.8285 16.4531 9.6639 16.26 9.65405C15.4594 9.61358 14.6583 9.6814 13.8788 9.8564C13.6902 9.89905 13.5715 10.0861 13.6142 10.2748C13.6508 10.4377 13.7952 10.5482 13.9554 10.5482L13.9555 10.5487Z" fill="white"/>
<path d="M15.0121 6.65778H15.693C15.886 6.65778 16.043 6.85082 16.043 7.00778V7.68863C16.043 7.88168 15.886 8.03863 15.693 8.03863H15.0121C14.8191 8.03863 14.6621 7.84558 14.6621 7.68863V7.00778C14.6621 6.81473 14.8191 6.65778 15.0121 6.65778Z" fill="white"/>
<path d="M12.2076 9.46651C12.1157 9.4594 12.0233 9.48838 11.9528 9.54854L11.4338 9.98932C11.2867 10.1145 11.2686 10.3355 11.3939 10.4826L11.8346 11.0016C11.9041 11.0831 12.0025 11.1252 12.1015 11.1252C12.1814 11.1252 12.2623 11.0978 12.3279 11.042L12.8469 10.6013C12.9175 10.5411 12.9617 10.4552 12.9694 10.3628C12.9771 10.2704 12.9475 10.1785 12.8874 10.108L12.4466 9.589C12.3864 9.51845 12.3006 9.47416 12.2082 9.4665L12.2076 9.46651Z" fill="white"/>
<path d="M17.0503 11.677C17.0503 12.4427 15.9014 12.4427 15.9014 11.677C15.9014 10.9109 17.0503 10.9109 17.0503 11.677Z" fill="white"/>
<path d="M11.4961 6.10493C11.8127 6.10493 12.0703 5.84735 12.0703 5.5307C12.0703 5.21406 11.8127 4.95648 11.4961 4.95648C11.1795 4.95648 10.9219 5.21406 10.9219 5.5307C10.9219 5.84735 11.1795 6.10493 11.4961 6.10493Z" fill="white"/>
</g>
<defs>
<clipPath id="clip0_2145_201">
<rect width="14" height="14" fill="white" transform="translate(4 4)"/>
</clipPath>
</defs>
</svg>
