<svg width="36" height="36" viewBox="0 0 36 36" fill="none" xmlns="http://www.w3.org/2000/svg">
<circle cx="18" cy="18" r="17.5" stroke="white"/>
<path d="M11.5566 11.7668C12.0398 11.7668 12.4385 11.3681 12.4385 10.885V9.43629C12.4385 8.95313 12.0398 8.55444 11.5566 8.55444C11.0735 8.55444 10.6748 8.95311 10.6748 9.43629V10.885C10.6748 11.3886 11.0735 11.7668 11.5566 11.7668Z" fill="white"/>
<path d="M23.4434 11.7668C23.9265 11.7668 24.3252 11.3681 24.3252 10.885V9.43629C24.3252 8.95313 23.9265 8.55444 23.4434 8.55444C22.9602 8.55444 22.5615 8.95311 22.5615 9.43629V10.885C22.5615 11.3886 22.9602 11.7668 23.4434 11.7668Z" fill="white"/>
<path d="M26.6772 10.9481H25.0186C24.9972 11.7881 24.3049 12.46 23.4436 12.46C22.5822 12.46 21.8899 11.7881 21.8686 10.9481H13.1322C13.1109 11.7881 12.4185 12.46 11.5572 12.46C10.6959 12.46 10.0035 11.7881 9.98222 10.9481H8.32355C7.88222 10.9481 7.52539 11.305 7.52539 11.7463V14.1399H27.4754V11.7463C27.4754 11.3049 27.1185 10.9481 26.6772 10.9481Z" fill="white"/>
<path d="M7.52539 25.648C7.52539 26.0893 7.88223 26.4462 8.32355 26.4462H26.6775C27.1189 26.4462 27.4757 26.0893 27.4757 25.648V14.8116H7.52571L7.52539 25.648ZM22.309 17.5416C22.309 16.9748 22.7709 16.513 23.3377 16.513H24.4304C24.9972 16.513 25.459 16.9748 25.459 17.5416V18.6335C25.459 19.2003 24.9972 19.6622 24.4304 19.6622H23.3385C22.7717 19.6622 22.3099 19.2003 22.3099 18.6335L22.309 17.5416ZM22.309 22.6448C22.309 22.078 22.7709 21.6162 23.3377 21.6162H24.4304C24.9972 21.6162 25.459 22.078 25.459 22.6448V23.7367C25.459 24.3035 24.9972 24.7653 24.4304 24.7653H23.3385C22.7717 24.7653 22.3099 24.3035 22.3099 23.7367L22.309 22.6448ZM15.9254 17.5416C15.9254 16.9748 16.3872 16.513 16.9541 16.513H18.0459C18.6127 16.513 19.0746 16.9748 19.0746 17.5416V18.6335C19.0746 19.2003 18.6127 19.6622 18.0459 19.6622H16.9541C16.3872 19.6622 15.9254 19.2003 15.9254 18.6335V17.5416ZM15.9254 22.6448C15.9254 22.078 16.3872 21.6162 16.9541 21.6162H18.0459C18.6127 21.6162 19.0746 22.078 19.0746 22.6448V23.7367C19.0746 24.3035 18.6127 24.7653 18.0459 24.7653H16.9541C16.3872 24.7653 15.9254 24.3035 15.9254 23.7367V22.6448ZM9.54174 22.6448C9.54174 22.078 10.0036 21.6162 10.5704 21.6162H11.6623C12.2291 21.6162 12.6909 22.078 12.6909 22.6448V23.7367C12.6909 24.3035 12.2291 24.7653 11.6623 24.7653L10.5704 24.7661C10.0036 24.7661 9.54174 24.3043 9.54174 23.7375V22.6448Z" fill="white"/>
</svg>
