<svg width="29" height="29" viewBox="0 0 29 29" fill="none" xmlns="http://www.w3.org/2000/svg">
<path d="M18.5575 10.2824C18.6291 12.1782 17.351 13.898 15.5183 14.3712C15.2606 14.4379 15.0804 14.6682 15.0804 14.9312V15.66C15.0804 15.9801 14.8206 16.24 14.5004 16.24C14.1803 16.24 13.9204 15.9801 13.9204 15.66V14.9312C13.9204 14.1389 14.4581 13.4466 15.2284 13.248C16.5371 12.9099 17.4498 11.6814 17.3982 10.3263C17.3422 8.8473 16.0932 7.59834 14.6139 7.54203C13.8129 7.51154 13.0622 7.7987 12.4894 8.35057C11.9162 8.90235 11.6005 9.64453 11.6005 10.44C11.6005 10.7601 11.3406 11.02 11.0205 11.02C10.7004 11.02 10.4405 10.7601 10.4405 10.44C10.4405 9.3264 10.8825 8.28762 11.6849 7.51506C12.487 6.74277 13.5374 6.34174 14.6583 6.38319C16.7649 6.46324 18.4776 8.17597 18.5576 10.2825L18.5575 10.2824ZM14.5004 17.4C14.1799 17.4 13.9204 17.6595 13.9204 17.98C13.9204 18.3005 14.1799 18.56 14.5004 18.56C14.8209 18.56 15.0804 18.3005 15.0804 17.98C15.0804 17.6595 14.8209 17.4 14.5004 17.4ZM26.1004 10.44V14.5C26.1004 18.6574 22.718 22.04 18.5604 22.04H15.0306L11.1405 25.9301C11.0294 26.0411 10.8815 26.1 10.7304 26.1C10.6555 26.1 10.5802 26.0855 10.5083 26.0559C10.2916 25.9661 10.1504 25.7546 10.1504 25.52V22.0345C6.12688 21.8813 2.90039 18.5603 2.90039 14.5V10.44C2.90039 6.28263 6.28276 2.90002 10.4404 2.90002H18.5604C22.718 2.90002 26.1004 6.28263 26.1004 10.44L26.1004 10.44ZM24.9404 10.44C24.9404 6.92206 22.0783 4.06 18.5604 4.06H10.4404C6.92243 4.06 4.06038 6.92206 4.06038 10.44V14.5C4.06038 18.0179 6.92243 20.88 10.4404 20.88H10.7304C11.0505 20.88 11.3104 21.1399 11.3104 21.46V24.1195L14.3803 21.0499C14.489 20.9411 14.6367 20.88 14.7904 20.88H18.5604C22.0783 20.88 24.9404 18.0179 24.9404 14.5L24.9404 10.44Z" fill="#1B1B1B"/>
</svg>
