<svg width="19" height="19" viewBox="0 0 19 19" fill="none" xmlns="http://www.w3.org/2000/svg">
<g clip-path="url(#clip0_63_499)">
<path d="M11.1566 6.13778C11.0928 6.13778 11.029 6.12418 10.9693 6.09635L9.49999 5.41502L8.0307 6.09635C7.88579 6.16388 7.71583 6.14885 7.58539 6.05521C7.45495 5.96244 7.3842 5.80671 7.40046 5.64763L7.57618 3.91214L6.50693 2.85861C6.39332 2.74666 6.34805 2.58263 6.38868 2.42808C6.42931 2.27383 6.54931 2.15323 6.70356 2.11148L8.16065 1.71775L9.13657 0.336848C9.30356 0.100282 9.69674 0.100282 9.86367 0.336848L10.8396 1.71775L12.2967 2.11148C12.4509 2.15323 12.5709 2.27383 12.6116 2.42808C12.6522 2.58264 12.6069 2.74667 12.4933 2.85861L11.4241 3.91214L11.5998 5.64763C11.616 5.80684 11.5453 5.96251 11.4148 6.05521C11.3383 6.11001 11.2479 6.13785 11.1568 6.13785L11.1566 6.13778ZM9.50007 4.47893C9.56383 4.47893 9.62822 4.49284 9.68734 4.52036L10.6348 4.95955L10.5166 3.78974C10.5026 3.65546 10.5508 3.52242 10.647 3.42761L11.3156 2.76891L10.4522 2.5355C10.352 2.50822 10.2644 2.44712 10.2047 2.36244L9.5002 1.36543L8.79575 2.36244C8.736 2.44711 8.64848 2.50828 8.54816 2.5355L7.68482 2.76891L8.35341 3.42761C8.44965 3.52243 8.49783 3.65547 8.48385 3.78974L8.36559 4.95955L9.31306 4.52036C9.37219 4.49284 9.43657 4.47893 9.50034 4.47893H9.50007Z" fill="white"/>
<path d="M11.875 18.8512H7.125C6.87916 18.8512 6.67969 18.6517 6.67969 18.4059V8.90588C6.67969 8.33303 7.1459 7.86682 7.71875 7.86682H11.2812C11.8541 7.86682 12.3203 8.33303 12.3203 8.90588V18.4059C12.3203 18.6517 12.1208 18.8512 11.875 18.8512ZM7.57023 17.9606H11.4296V8.9058C11.4296 8.82404 11.3629 8.75737 11.2812 8.75737H7.71867C7.63691 8.75737 7.57023 8.82404 7.57023 8.9058V17.9606Z" fill="white"/>
<path d="M16.625 18.8512H11.875C11.6292 18.8512 11.4297 18.6517 11.4297 18.4059V10.6871C11.4297 10.4413 11.6292 10.2418 11.875 10.2418H16.0312C16.6041 10.2418 17.0703 10.708 17.0703 11.2809V18.4059C17.0703 18.6517 16.8708 18.8512 16.625 18.8512ZM12.3202 17.9606H16.1796V11.2808C16.1796 11.199 16.1129 11.1324 16.0312 11.1324H12.3202L12.3202 17.9606Z" fill="white"/>
<path d="M7.125 18.8512H2.375C2.12916 18.8512 1.92969 18.6517 1.92969 18.4059V13.6559C1.92969 13.083 2.3959 12.6168 2.96875 12.6168H7.125C7.37084 12.6168 7.57031 12.8163 7.57031 13.0621V18.4059C7.57031 18.6517 7.37084 18.8512 7.125 18.8512ZM2.82023 17.9606H6.67961V13.5074H2.96859C2.88683 13.5074 2.82015 13.5741 2.82015 13.6559L2.82023 17.9606Z" fill="white"/>
<path d="M18.4062 18.8512H0.59375C0.347906 18.8512 0.148438 18.6517 0.148438 18.4059C0.148438 18.16 0.347906 17.9606 0.59375 17.9606H18.4062C18.6521 17.9606 18.8516 18.16 18.8516 18.4059C18.8516 18.6517 18.6521 18.8512 18.4062 18.8512Z" fill="white"/>
</g>
<defs>
<clipPath id="clip0_63_499">
<rect width="19" height="19" fill="white"/>
</clipPath>
</defs>
</svg>
