<svg width="19" height="19" viewBox="0 0 19 19" fill="none" xmlns="http://www.w3.org/2000/svg">
<path d="M2.37501 10.6194L3.66993 11.9144V13.7468C3.67043 14.1665 3.83742 14.569 4.13423 14.8658C4.43104 15.1626 4.8335 15.3296 5.25327 15.3301H7.08518L8.38054 16.625C8.67767 16.9216 9.08023 17.0881 9.50001 17.0881C9.91978 17.0881 10.3224 16.9216 10.6195 16.625L11.9148 15.3301H13.7464H13.7464C14.1661 15.3296 14.5686 15.1626 14.8655 14.8658C15.1623 14.569 15.3292 14.1665 15.3297 13.7468V11.9144L16.6251 10.6194C16.9216 10.3223 17.0881 9.91975 17.0881 9.49998C17.0881 9.0802 16.9215 8.67763 16.6251 8.38051L15.3297 7.08558V5.25319C15.3292 4.83342 15.1623 4.43097 14.8655 4.13416C14.5686 3.83734 14.1661 3.67035 13.7464 3.66986H11.9149L10.6196 2.37493C10.3224 2.07861 9.91981 1.91223 9.5001 1.91223C9.08039 1.91223 8.67781 2.07861 8.38064 2.37493L7.08528 3.66986H5.25337C4.83359 3.67035 4.43114 3.83734 4.13433 4.13416C3.83745 4.43097 3.67052 4.83342 3.67003 5.25319L3.67046 7.08558L2.37511 8.38051C2.0786 8.67764 1.91211 9.0802 1.91211 9.49998C1.91211 9.91975 2.07861 10.3223 2.37511 10.6194H2.37501ZM7.15905 8.94032C7.30748 8.79182 7.50887 8.70839 7.71879 8.70839C7.92877 8.70839 8.13014 8.79182 8.27853 8.94032L8.90629 9.56808L10.7216 7.75278H10.7216C10.9223 7.55653 11.212 7.48127 11.4828 7.55493C11.7537 7.62859 11.9653 7.84018 12.039 8.11108C12.1126 8.38191 12.0373 8.67155 11.841 8.87225L9.46604 11.2472C9.3176 11.3957 9.11622 11.4792 8.9063 11.4792C8.69632 11.4792 8.49495 11.3957 8.34656 11.2472L7.15906 10.0597C7.01056 9.91131 6.92713 9.70993 6.92713 9.50001C6.92713 9.29003 7.01057 9.08871 7.15906 8.94027L7.15905 8.94032Z" fill="white"/>
</svg>
