<svg width="19" height="19" viewBox="0 0 19 19" fill="none" xmlns="http://www.w3.org/2000/svg">
<g clip-path="url(#clip0_62_491)">
<path d="M0.878748 15.4746H0.87949C0.720666 15.6282 0.630859 15.839 0.630859 16.0594C0.630859 16.2806 0.720664 16.4914 0.878746 16.645L2.18351 17.9201C2.5212 18.2466 3.05706 18.2466 3.39476 17.9201L6.84294 14.5492L4.33431 12.0978L0.878748 15.4746Z" fill="white"/>
<path d="M16.4161 2.74615C15.1143 1.47403 13.4043 0.83728 11.6943 0.83728C9.98505 0.83728 8.27584 1.47408 6.97387 2.74615C5.71437 3.97744 5.02051 5.61404 5.02051 7.35523C5.02051 9.09642 5.71445 10.7322 6.97387 11.9635C9.5775 14.5086 13.8139 14.5086 16.4167 11.9635C17.6762 10.7322 18.3693 9.09484 18.3693 7.35523C18.3693 5.61404 17.6761 3.97766 16.4159 2.74615H16.4161ZM11.6949 3.50615C12.7815 3.50615 13.6617 4.36708 13.6617 5.4299C13.6617 6.49271 12.78 7.35365 11.6949 7.35365C10.6098 7.35365 9.72808 6.49197 9.72808 5.4299C9.72808 4.36857 10.6083 3.50615 11.6949 3.50615ZM14.9041 10.2542V10.2549C14.9041 10.5065 14.804 10.7477 14.6266 10.9251C14.4485 11.1032 14.2072 11.2027 13.9564 11.2027H9.43343C9.18257 11.2027 8.94136 11.1032 8.76324 10.9251C8.58586 10.7477 8.48566 10.5065 8.48566 10.2549V8.80466C8.48566 8.28067 8.91019 7.85689 9.43343 7.85689L13.9564 7.85615C14.2072 7.85615 14.4485 7.95635 14.6266 8.13447C14.804 8.31185 14.9041 8.55307 14.9041 8.80466V10.2542Z" fill="white"/>
<path d="M5.56227 10.8968L4.65234 11.7874L7.1624 14.2381L8.0701 13.3505V13.3512C7.55798 13.0551 7.08521 12.6966 6.66216 12.2832C6.23837 11.8691 5.86877 11.4037 5.56224 10.8968L5.56227 10.8968Z" fill="white"/>
</g>
<defs>
<clipPath id="clip0_62_491">
<rect width="19" height="19" fill="white"/>
</clipPath>
</defs>
</svg>
