<svg width="13" height="14" viewBox="0 0 13 14" fill="none" xmlns="http://www.w3.org/2000/svg">
<path d="M6.49986 1.3125C6.90611 1.3125 7.25142 1.59688 7.3733 1.99063C7.08892 1.925 6.80455 1.88125 6.49986 1.88125C6.19517 1.88125 5.9108 1.925 5.62642 1.99063C5.7483 1.59688 6.09361 1.3125 6.49986 1.3125ZM3.47324 3.25943C3.85918 3.25943 4.18418 3.60943 4.18418 4.02506C4.18418 4.44068 3.85918 4.79068 3.47324 4.79068C3.0873 4.79068 2.7623 4.44068 2.7623 4.02506C2.74199 3.60943 3.06699 3.25943 3.47324 3.25943ZM6.49986 12.6875C5.95142 12.6875 5.46392 12.2937 5.30148 11.7688H7.69835C7.53585 12.2937 7.04835 12.6875 6.49997 12.6875H6.49986ZM10.928 10.6094C10.7655 10.7844 10.5624 10.8938 10.3186 10.8938H2.66074C2.4373 10.8938 2.21387 10.8063 2.05137 10.6094C1.88887 10.4344 1.80762 10.1938 1.80762 9.95318C1.82793 9.47193 2.21387 9.07818 2.70137 9.07818H2.80293C3.02637 9.07818 3.20918 8.88131 3.20918 8.64068V6.25625C3.20918 6.05937 3.22949 5.8625 3.2498 5.66563C3.31074 5.66563 3.37168 5.6875 3.43262 5.6875C4.28574 5.6875 4.956 4.94375 4.956 4.04693C4.956 3.76256 4.89506 3.50006 4.77319 3.25943C5.281 2.93131 5.84975 2.75631 6.45907 2.75631C8.26694 2.75631 9.72944 4.33131 9.72944 6.27824V8.66268C9.72944 8.9033 9.91225 9.10018 10.1357 9.10018H10.2373C10.7044 9.10018 11.1107 9.49393 11.131 9.97517C11.1716 10.1939 11.0904 10.4346 10.9279 10.6096L10.928 10.6094Z" fill="black"/>
</svg>
