<svg width="19" height="19" viewBox="0 0 19 19" fill="none" xmlns="http://www.w3.org/2000/svg">
<g clip-path="url(#clip0_56_300)">
<path fill-rule="evenodd" clip-rule="evenodd" d="M2.19018 4.59635e-06C1.64764 4.59635e-06 1.20215 0.445998 1.20215 0.988606V15.7084C1.20215 16.251 1.64765 16.6964 2.19018 16.6964H9.86396C10.5566 18.0619 11.9719 19 13.6032 19C15.9158 19 17.7976 17.1146 17.7976 14.7986C17.7976 12.7829 16.372 11.0954 14.4775 10.6918V0.98848C14.4775 0.445871 14.032 -0.00012207 13.4894 -0.00012207L2.19018 4.59635e-06ZM2.19018 0.593755H13.4896C13.7131 0.593755 13.8839 0.76428 13.8839 0.988606V10.6096C13.7912 10.6039 13.6976 10.6006 13.6033 10.6006C11.2907 10.6006 9.41127 12.483 9.41127 14.799C9.41127 15.254 9.48407 15.6923 9.61828 16.103H2.19023C1.96677 16.103 1.79595 15.933 1.79595 15.7087L1.79588 0.988616C1.79588 0.764289 1.96671 0.593764 2.19017 0.593764L2.19018 0.593755ZM3.71105 3.55665V3.55658C3.63263 3.55689 3.55748 3.58825 3.50207 3.64379C3.44665 3.69927 3.41548 3.77448 3.41535 3.8529C3.41504 3.93164 3.44603 4.00728 3.50145 4.06312C3.55693 4.11903 3.63232 4.15064 3.71105 4.15095H11.9688H11.9687C12.0474 4.15064 12.1228 4.11903 12.1783 4.06312C12.2338 4.00727 12.2647 3.93163 12.2645 3.8529C12.2643 3.77448 12.2331 3.69927 12.1777 3.64379C12.1223 3.58825 12.0472 3.55689 11.9687 3.55658L3.71105 3.55665ZM3.71105 6.15822C3.63232 6.15853 3.55692 6.19007 3.50145 6.24599C3.44603 6.3019 3.41505 6.37748 3.41536 6.4562C3.41566 6.53457 3.4469 6.60959 3.50232 6.66501C3.55767 6.72037 3.63269 6.75167 3.71106 6.75197H11.9688H11.9687C12.0471 6.75166 12.1221 6.72037 12.1775 6.66501C12.2329 6.6096 12.2642 6.53457 12.2645 6.4562C12.2647 6.37747 12.2338 6.30189 12.1783 6.24599C12.1229 6.19007 12.0475 6.15853 11.9687 6.15822H3.71105ZM3.71105 8.76154C3.63269 8.76185 3.55767 8.79314 3.5023 8.8485C3.44689 8.90391 3.41565 8.97894 3.41534 9.05724C3.41504 9.13598 3.44602 9.21162 3.50144 9.26753C3.55692 9.32344 3.63231 9.35498 3.71104 9.35529H10.1012H10.1012C10.1803 9.3556 10.2563 9.3243 10.3122 9.26833C10.3682 9.21236 10.3995 9.13641 10.3992 9.05724C10.3989 8.97851 10.3674 8.90317 10.3114 8.8477C10.2555 8.79222 10.1799 8.76124 10.1012 8.76155L3.71105 8.76154ZM13.6032 11.1939C15.5943 11.1939 17.2039 12.8028 17.2039 14.7985C17.2039 16.7941 15.5943 18.4055 13.6032 18.4055C12.1529 18.4055 10.9068 17.5503 10.3365 16.3147V16.3147C10.329 16.2905 10.3185 16.2673 10.3052 16.2457C10.1121 15.8029 10.0048 15.3135 10.0048 14.7985C10.0048 12.8029 11.6121 11.1939 13.6031 11.1939L13.6032 11.1939ZM15.3375 13.3918V13.3919C15.2495 13.3854 15.1632 13.4183 15.102 13.4818L13.1648 15.4828L12.1066 14.3916H12.1067C12.0518 14.3346 11.9766 14.302 11.8976 14.3007C11.8186 14.2994 11.7423 14.3297 11.6857 14.3848C11.6295 14.4396 11.5972 14.5143 11.596 14.5928C11.5947 14.6712 11.6246 14.747 11.679 14.8035L12.9506 16.1185V16.1185C13.0065 16.1765 13.0836 16.2093 13.1642 16.2093C13.2448 16.2093 13.3219 16.1765 13.3779 16.1185L15.5295 13.8937V13.8938C15.5839 13.8373 15.6137 13.7615 15.6125 13.6831C15.6112 13.6047 15.5789 13.5299 15.5227 13.4751C15.4727 13.4266 15.4073 13.3973 15.3378 13.3922L15.3375 13.3918Z" fill="white"/>
</g>
<defs>
<clipPath id="clip0_56_300">
<rect width="19" height="19" fill="white"/>
</clipPath>
</defs>
</svg>
