<svg width="22" height="22" viewBox="0 0 22 22" fill="none" xmlns="http://www.w3.org/2000/svg">
<path d="M10.1202 15.62C11.4092 15.6209 12.6603 15.1842 13.6688 14.3814L17.1338 17.8464L18.0666 16.9136L14.6016 13.4486C15.405 12.4329 15.84 11.1746 15.8354 9.87969C15.8307 8.5846 15.3868 7.32952 14.5761 6.31954C13.7654 5.30963 12.6361 4.60466 11.3727 4.31992C10.1093 4.03533 8.7868 4.18779 7.62135 4.75248C6.4559 5.31724 5.51668 6.26069 4.95696 7.4286C4.39743 8.59648 4.25076 9.91973 4.54102 11.1818C4.8312 12.4439 5.54112 13.5703 6.55475 14.3764C7.56824 15.1826 8.82533 15.621 10.1204 15.6199L10.1202 15.62ZM10.1202 5.5C11.2872 5.5 12.4064 5.96356 13.2316 6.78871C14.0567 7.61393 14.5203 8.73296 14.5203 9.90006C14.5203 11.0672 14.0567 12.1862 13.2316 13.0114C12.4063 13.8366 11.2873 14.3001 10.1202 14.3001C8.95312 14.3001 7.83405 13.8366 7.00887 13.0114C6.18372 12.1862 5.72016 11.0672 5.72016 9.90006C5.72016 8.73296 6.18372 7.61389 7.00887 6.78871C7.83409 5.96356 8.95312 5.5 10.1202 5.5Z" fill="#CBCBCB"/>
</svg>
