<svg width="19" height="19" viewBox="0 0 19 19" fill="none" xmlns="http://www.w3.org/2000/svg">
<g clip-path="url(#clip0_56_302)">
<path d="M16.8136 7.21417C16.7535 7.21417 16.6912 7.20675 16.6288 7.19487C16.3936 7.14663 16.1946 7.01006 16.0633 6.81116L13.5524 2.98963C13.2934 2.59627 13.3899 2.06857 13.7706 1.791L15.4368 0.577518C15.5592 0.491424 15.7292 0.5174 15.8205 0.637635C15.9095 0.757871 15.8828 0.927829 15.7603 1.01912L14.0964 2.22963C13.9502 2.33725 13.9116 2.54136 14.0126 2.69275L16.5234 6.51492C16.5739 6.59137 16.6525 6.64406 16.7416 6.66336C16.8351 6.68266 16.9264 6.66336 17.0029 6.61289L18.1421 5.86921C18.269 5.78757 18.4397 5.82097 18.5236 5.94566C18.6052 6.07257 18.5718 6.2403 18.4442 6.32195L17.3049 7.06785C17.1587 7.16359 16.9888 7.21406 16.8136 7.21406" fill="white"/>
<path d="M2.82429 6.98171C2.67288 6.98171 2.51703 6.94311 2.37823 6.86444L0.587325 5.84542C0.455214 5.77046 0.409944 5.60273 0.486387 5.47359C0.560606 5.34371 0.72908 5.29844 0.86045 5.37265L2.65136 6.39167C2.80944 6.48296 3.01355 6.43472 3.11448 6.28109L5.63198 2.46399C5.68245 2.38754 5.69878 2.29625 5.68023 2.20497C5.66093 2.11591 5.60823 2.03946 5.52882 1.98899L3.56058 0.807423C3.42847 0.728009 3.38765 0.56028 3.46706 0.43336C3.54648 0.30644 3.71421 0.263405 3.84336 0.342072L5.81904 1.52883C6.0276 1.66094 6.16639 1.85984 6.21685 2.09215C6.26731 2.32445 6.22131 2.56195 6.08994 2.76085L3.57466 6.57795C3.40172 6.8392 3.11672 6.98096 2.8243 6.98096" fill="white"/>
<path d="M14.9134 7.89751C14.8555 7.89751 14.7984 7.88044 14.7502 7.84481L10.5309 4.74243L9.33894 4.79216C8.61754 5.75848 7.64382 6.20454 7.03962 6.13997C6.7279 6.1088 6.49782 5.95071 6.39244 5.69911C6.20095 5.23896 6.46666 4.54353 7.16208 3.68701C7.20067 3.64173 7.23407 3.59572 7.26747 3.55044C7.42778 3.33669 7.61036 3.09474 7.93915 3.00643L10.6459 2.27241C10.9123 2.20042 11.1995 2.22194 11.4563 2.33475C12.5355 2.81198 13.7126 2.5767 13.7246 2.57448C13.8731 2.54331 14.0193 2.63683 14.0504 2.78526C14.0816 2.93147 13.9859 3.07545 13.8367 3.10663C13.7818 3.11628 12.4726 3.37975 11.2324 2.8335C11.0907 2.76893 10.9326 2.75706 10.7886 2.79788L8.0849 3.52893C7.94611 3.56753 7.84963 3.68479 7.7086 3.87628C7.67001 3.92675 7.63216 3.97722 7.59134 4.02769C6.95602 4.80921 6.82169 5.30351 6.9011 5.49055C6.90852 5.5143 6.93969 5.58406 7.09555 5.60113C7.49632 5.63973 8.33055 5.28719 8.96816 4.37356C9.01863 4.30157 9.0973 4.25852 9.18414 4.25333L10.6062 4.19544C10.6707 4.19321 10.7309 4.21251 10.7813 4.24813L14.9197 7.29114L16.1354 6.43984C16.2601 6.35375 16.43 6.38195 16.5169 6.50441C16.6059 6.62688 16.577 6.79684 16.4523 6.88293L15.0733 7.84925C15.0251 7.88042 14.9701 7.89749 14.9152 7.89749" fill="white"/>
<path d="M7.76565 3.67001C7.74635 3.67001 7.72483 3.66778 7.70553 3.66259C7.55413 3.62696 6.22116 3.31524 5.67475 2.81353C5.56194 2.71036 5.55451 2.53742 5.65768 2.42759C5.76307 2.317 5.936 2.31255 6.04585 2.41349C6.41991 2.75637 7.45823 3.0488 7.8271 3.13044C7.97554 3.16606 8.06683 3.31005 8.03342 3.45923C8.00448 3.58392 7.89166 3.67001 7.76475 3.67001" fill="white"/>
<path d="M4.16187 7.8975C4.08542 7.8975 4.00823 7.86633 3.95331 7.80176L3.03004 6.72484C2.93207 6.6098 2.94617 6.43984 3.06121 6.34114C3.17847 6.24539 3.3514 6.25727 3.44938 6.37231L4.37265 7.45145C4.47062 7.56426 4.45429 7.73645 4.33925 7.83293C4.28878 7.87598 4.22421 7.8975 4.16187 7.8975Z" fill="white"/>
<path d="M5.34886 7.36027C5.22863 7.36027 5.11136 7.40852 5.02749 7.50426L4.32019 8.30286C4.24597 8.38673 4.20737 8.49731 4.2148 8.60716C4.22222 8.71997 4.27269 8.82314 4.35878 8.89959C4.44488 8.97381 4.55546 9.01017 4.66828 9.00275C4.78331 8.99533 4.88647 8.94486 4.96292 8.85877L5.67022 8.0624C5.82386 7.88502 5.80679 7.61634 5.6294 7.46271C5.54777 7.39295 5.44979 7.35955 5.34885 7.35955L5.34886 7.36027ZM4.63934 9.54686C4.40184 9.54686 4.17621 9.46299 3.9966 9.30713C3.80215 9.13717 3.68487 8.90189 3.66559 8.64287C3.65149 8.38607 3.73535 8.13669 3.90754 7.94299L4.61484 7.14439C4.96961 6.74361 5.58859 6.70576 5.99086 7.05533C6.18754 7.22528 6.3048 7.46056 6.32187 7.71958C6.33894 7.97638 6.2521 8.22576 6.07992 8.41946L5.37484 9.21806C5.20191 9.41251 4.96516 9.52756 4.70316 9.54388C4.68164 9.54611 4.66012 9.54611 4.63859 9.54611" fill="white"/>
<path d="M6.77783 7.93838C6.76818 7.93838 6.75853 7.94061 6.74889 7.94061C6.63385 7.94803 6.53069 7.9985 6.45424 8.08237L5.31275 9.37229C5.23854 9.45616 5.19994 9.56674 5.20959 9.67955C5.21701 9.79237 5.26748 9.89554 5.35358 9.96975C5.43967 10.044 5.55026 10.0803 5.66307 10.0729C5.77588 10.0655 5.88127 10.015 5.9555 9.92892L7.09698 8.64123C7.17343 8.55736 7.2098 8.44678 7.20237 8.33397C7.19495 8.22116 7.14448 8.11799 7.05839 8.04378C6.97898 7.97401 6.881 7.93838 6.77783 7.93838ZM5.63413 10.6171C5.40627 10.6171 5.17619 10.5377 4.99139 10.3773C4.79471 10.2074 4.67744 9.97209 4.66038 9.71308C4.64331 9.45628 4.72717 9.2069 4.90011 9.0132L6.0416 7.7255C6.21453 7.53105 6.45128 7.41378 6.71328 7.39671C6.97453 7.37964 7.2239 7.46647 7.41835 7.63644C7.61725 7.80639 7.7323 8.04168 7.7516 8.29846C7.76867 8.55748 7.68183 8.80686 7.50965 9.00132L6.36816 10.289C6.17667 10.5072 5.90503 10.6178 5.63414 10.6178" fill="white"/>
<path d="M7.75899 8.90244H7.73005C7.61723 8.90986 7.51185 8.96033 7.43762 9.04642L6.3993 10.2191C6.32508 10.3029 6.28649 10.4106 6.29391 10.5234C6.30133 10.6362 6.3518 10.7394 6.4379 10.8136C6.52399 10.89 6.6368 10.9264 6.74739 10.919C6.86243 10.9115 6.96559 10.8588 7.04203 10.775L8.08035 9.60454C8.15457 9.51845 8.19317 9.41009 8.18574 9.29728C8.17609 9.18447 8.12562 9.0813 8.03953 9.00485C7.96012 8.93806 7.86215 8.90169 7.75898 8.90169L7.75899 8.90244ZM6.71844 11.463C6.48094 11.463 6.25532 11.3791 6.0757 11.2233C5.87902 11.0533 5.76398 10.818 5.74469 10.559C5.73059 10.3022 5.81445 10.0528 5.98664 9.85914L7.02496 8.68649C7.37972 8.28571 7.99871 8.24562 8.40097 8.59743C8.80621 8.94997 8.84703 9.56153 8.49226 9.96156L7.45394 11.1342C7.28101 11.3287 7.04425 11.4437 6.78226 11.46C6.76073 11.4623 6.73921 11.4623 6.71769 11.4623" fill="white"/>
<path d="M8.56936 10.0463C8.4521 10.0463 8.33186 10.0945 8.24799 10.1903L7.64831 10.8642C7.49467 11.0415 7.51174 11.308 7.68913 11.4609C7.86651 11.6167 8.13518 11.5975 8.29105 11.4223L8.89073 10.7462C8.96495 10.6623 9.00355 10.5517 8.99612 10.4419C8.98647 10.3268 8.93601 10.2259 8.85214 10.1494C8.7705 10.0797 8.66956 10.0463 8.56936 10.0463ZM7.96968 12.1103C7.74182 12.1103 7.51174 12.0309 7.32694 11.8706C6.9217 11.518 6.88088 10.9065 7.23565 10.5064L7.83534 9.83031C8.00827 9.63586 8.24502 9.52082 8.50404 9.50449C8.76752 9.48742 9.0169 9.57129 9.21135 9.74199C9.40803 9.91195 9.52529 10.1472 9.54236 10.4062C9.55943 10.663 9.47556 10.9124 9.30263 11.1061L8.70294 11.7823C8.51145 11.9982 8.23981 12.1111 7.96892 12.1111" fill="white"/>
<path d="M14.2417 9.27424C14.0331 9.27424 13.8268 9.21635 13.6472 9.10131L11.1104 7.5137C10.9812 7.43429 10.9426 7.26656 11.0243 7.13964C11.1059 7.01272 11.2759 6.97413 11.4028 7.05577L13.9396 8.64338C14.0687 8.72279 14.2224 8.75099 14.3715 8.71537C14.52 8.6842 14.6476 8.59513 14.7285 8.46599C14.8725 8.24037 14.8362 7.94052 14.6395 7.75647C14.5289 7.65108 14.3997 7.56498 14.258 7.50265C14.1192 7.44253 14.0569 7.28 14.1192 7.14269C14.1815 7.00613 14.3448 6.94601 14.4836 7.00613C14.6803 7.09519 14.8599 7.21469 15.018 7.36089C15.4039 7.72531 15.4759 8.31312 15.1909 8.75844C15.0328 9.00781 14.7835 9.18296 14.491 9.24754C14.4094 9.26684 14.3255 9.27426 14.2417 9.27426" fill="white"/>
<path d="M13.2568 10.0032C13.029 10.0032 12.7967 9.95273 12.5755 9.84511L10.4847 8.82312C10.3504 8.75632 10.2932 8.59304 10.36 8.4587C10.4268 8.32435 10.5901 8.26944 10.7296 8.33624L12.8204 9.35749C13.2739 9.57792 13.8202 9.42725 14.0888 9.00273C14.1705 8.87581 14.3404 8.83722 14.4673 8.91886C14.5965 8.99827 14.6351 9.166 14.5534 9.29292C14.2632 9.74862 13.7667 10.0024 13.2561 10.0024" fill="white"/>
<path d="M12.0188 10.732C11.8459 10.732 11.6715 10.6964 11.5082 10.6192L10.6376 10.214C10.501 10.1494 10.4432 9.98835 10.5055 9.85178C10.5701 9.71745 10.7333 9.65733 10.8721 9.72264L11.7405 10.1279C12.0403 10.2644 12.3973 10.1613 12.5747 9.88593L12.7833 9.56233C12.8649 9.43542 13.0326 9.39683 13.1618 9.47846C13.2887 9.55788 13.3273 9.72561 13.2457 9.85253L13.0393 10.1761C12.8115 10.5331 12.4203 10.7328 12.0181 10.7328" fill="white"/>
<path d="M10.7361 11.7458C10.506 11.7458 10.273 11.7028 10.0503 11.6115L8.99049 11.1773C8.8517 11.1194 8.78416 10.9613 8.84205 10.8225C8.89993 10.6837 9.06025 10.6184 9.202 10.6741L10.2596 11.1083C10.7584 11.3124 11.3172 11.178 11.6215 10.7891C11.6453 10.7557 11.6668 10.7246 11.6883 10.6912L11.8709 10.4084C11.9526 10.2815 12.1203 10.2429 12.2494 10.3223C12.3763 10.4039 12.4149 10.5717 12.3333 10.6986L12.1537 10.9814C12.1225 11.0318 12.0891 11.0771 12.0557 11.1231C11.7418 11.5261 11.2497 11.7466 10.7368 11.7466" fill="white"/>
<path d="M6.26771 18.4965H1.5052C0.960442 18.4965 0.516602 18.0534 0.516602 17.5079V14.7396C0.516602 14.1948 0.959682 13.751 1.5052 13.751L6.26771 13.7517C6.81247 13.7517 7.25631 14.1955 7.25631 14.7403V17.5086C7.25631 18.0541 6.81323 18.4972 6.26771 18.4972V18.4965ZM1.5052 14.2036C1.20982 14.2036 0.96934 14.4441 0.96934 14.7402V17.5085C0.96934 17.8039 1.20982 18.0444 1.5052 18.0444H6.26771C6.5631 18.0444 6.80358 17.8039 6.80358 17.5085L6.80432 14.7394C6.80432 14.4433 6.56384 14.2028 6.26845 14.2028L1.5052 14.2036Z" fill="white"/>
<path d="M12.3392 16.3511H8.17852C8.05383 16.3511 7.95215 16.2501 7.95215 16.1247C7.95215 16 8.05309 15.8983 8.17852 15.8983H12.3392C12.4639 15.8983 12.5656 15.9993 12.5656 16.1247C12.5656 16.2494 12.4646 16.3511 12.3392 16.3511Z" fill="white"/>
<path d="M15.8229 18.6865C14.4105 18.6865 13.2617 17.5368 13.2617 16.1237C13.2617 14.7113 14.4106 13.5625 15.8229 13.5625C17.236 13.5625 18.3857 14.7114 18.3857 16.1237C18.3857 17.5368 17.2361 18.6865 15.8229 18.6865ZM15.8229 14.0144C14.6599 14.0144 13.7136 14.9607 13.7136 16.1237C13.7136 17.2875 14.6599 18.2344 15.8229 18.2344C16.9867 18.2344 17.9337 17.2881 17.9337 16.1237C17.9337 14.9607 16.9874 14.0144 15.8229 14.0144Z" fill="white"/>
<path d="M3.09537 14.8725C2.72354 14.929 2.3851 15.1434 2.13349 15.4092C1.68595 15.8819 1.45513 16.5425 1.50857 17.1904V17.1911C1.51228 17.2364 1.5338 17.2787 1.56943 17.3084C1.60431 17.3381 1.64958 17.3529 1.6956 17.3492C1.7906 17.3411 1.86111 17.2572 1.85294 17.1622C1.80767 16.6152 2.00732 16.046 2.38434 15.6474C2.66117 15.3542 3.05677 15.1576 3.42117 15.2147C3.59262 15.2414 3.76406 15.3483 3.87466 15.4893C3.98525 15.6303 4.03348 15.7958 3.99489 15.9517C3.95555 16.1076 3.82641 16.2627 3.69876 16.4564C3.56665 16.656 3.43751 16.9306 3.53919 17.2164C3.59857 17.3834 3.73736 17.4888 3.8895 17.5326C4.04165 17.5756 4.2413 17.5459 4.35188 17.3886C4.42981 17.2787 4.44095 17.1719 4.46024 17.1066C4.46841 17.0776 4.47583 17.0628 4.47954 17.0546C4.47583 17.0561 4.484 17.0546 4.52853 17.068C4.579 17.0828 4.65989 17.1162 4.76973 17.0954C4.89293 17.0717 4.97903 16.9789 5.02134 16.8898C5.0629 16.8 5.07478 16.7073 5.06587 16.6167C5.05029 16.4601 5.01169 16.3562 5.01911 16.2968C5.02802 16.2308 5.06587 16.1818 5.14751 16.1261C5.22915 16.0712 5.34716 16.0237 5.4622 15.9866C5.59208 15.9443 5.7383 15.8872 5.86595 15.7936C5.99435 15.7001 6.11088 15.5546 6.12275 15.3654C6.12572 15.3194 6.11013 15.2748 6.0797 15.24C6.04927 15.2058 6.00697 15.1843 5.96095 15.1813C5.91568 15.1791 5.87041 15.1939 5.83552 15.2244C5.80138 15.2548 5.7806 15.2971 5.77763 15.3431C5.77318 15.4077 5.73978 15.4567 5.66185 15.5138C5.58392 15.571 5.4674 15.6207 5.35533 15.6571C5.22842 15.6986 5.08295 15.7513 4.95307 15.8396C4.82319 15.928 4.70147 16.0653 4.67624 16.2516C4.65249 16.4327 4.71261 16.5655 4.72152 16.6509C4.72449 16.6813 4.71781 16.7221 4.70816 16.7429C4.69851 16.7629 4.70074 16.7563 4.70445 16.7555C4.70816 16.7548 4.68292 16.7533 4.628 16.737C4.57234 16.7206 4.48105 16.6887 4.36973 16.7236C4.29328 16.7481 4.2302 16.803 4.19458 16.8572C4.15821 16.9114 4.14189 16.9641 4.12853 17.0101C4.10181 17.1021 4.08251 17.1719 4.06989 17.1897C4.05653 17.209 4.03798 17.2149 3.98528 17.2001C3.93184 17.1852 3.87915 17.1377 3.86653 17.1014C3.82348 16.9811 3.88286 16.8075 3.98899 16.6479C4.09884 16.4816 4.26582 16.2991 4.33188 16.0371C4.4009 15.761 4.31184 15.4856 4.14856 15.2771C3.98528 15.0685 3.7463 14.9164 3.47688 14.8741C3.34774 14.854 3.22008 14.8548 3.09614 14.8741L3.09537 14.8725Z" fill="white"/>
<path d="M15.5176 16.9496C15.4552 16.9496 15.3936 16.9259 15.3461 16.8784L14.9209 16.4531C14.8259 16.3581 14.8259 16.2052 14.9209 16.1102C15.0159 16.0152 15.1687 16.0152 15.2637 16.1102L15.5176 16.364L16.4579 15.4237C16.5529 15.3287 16.7058 15.3287 16.8008 15.4237C16.8958 15.5187 16.8958 15.6716 16.8008 15.7666L15.689 16.8791C15.6415 16.9266 15.5799 16.9496 15.5176 16.9496Z" fill="white"/>
</g>
<defs>
<clipPath id="clip0_56_302">
<rect width="19" height="19" fill="white"/>
</clipPath>
</defs>
</svg>
