<svg width="19" height="19" viewBox="0 0 19 19" fill="none" xmlns="http://www.w3.org/2000/svg">
<path fill-rule="evenodd" clip-rule="evenodd" d="M16.2292 2.67628C16.3531 2.80023 16.4169 2.95311 16.4169 3.12902V17.8653C16.4169 18.2178 16.1282 18.5065 15.7757 18.5065H3.04727C2.69251 18.5065 2.40527 18.2178 2.40527 17.8653V1.15951C2.40527 0.805494 2.69251 0.517517 3.04727 0.517517H13.8052C13.9819 0.517517 14.134 0.581344 14.258 0.705285L16.2292 2.67628ZM13.6597 1.09839H3.04728C3.01314 1.09839 2.98568 1.12586 2.98568 1.16V17.8657C2.98568 17.8999 3.01314 17.9266 3.04728 17.9266H15.7757C15.8091 17.9266 15.8366 17.8991 15.8366 17.8657V3.27501H14.1258C13.8705 3.27501 13.6597 3.06497 13.6597 2.80891L13.6597 1.09839ZM15.4261 2.69487L14.2401 1.50886V2.69487H15.4261ZM6.41361 6.44895L4.89955 5.77208C4.79564 5.72532 4.7281 5.62141 4.7281 5.50712C4.7281 5.39283 4.79564 5.28892 4.89955 5.24217L9.11216 3.35848C9.18787 3.32508 9.27396 3.32508 9.34892 3.35848L13.5615 5.24217C13.6662 5.28893 13.733 5.39283 13.733 5.50712C13.733 5.62141 13.6662 5.72532 13.5615 5.77208L12.0475 6.44895L13.5615 7.12508C13.6662 7.17184 13.733 7.27575 13.733 7.39004C13.733 7.50433 13.6662 7.60824 13.5615 7.65499L12.0475 8.33187L13.5615 9.00874C13.6662 9.0555 13.733 9.15941 13.733 9.2737C13.733 9.38799 13.6662 9.4919 13.5615 9.53793L9.34892 11.4216C9.27396 11.455 9.18786 11.455 9.11216 11.4216L4.89955 9.53793C4.79564 9.49191 4.7281 9.388 4.7281 9.2737C4.7281 9.1594 4.79564 9.0555 4.89955 9.00874L6.41361 8.33187L4.89955 7.65499C4.79564 7.60824 4.7281 7.50433 4.7281 7.39004C4.7281 7.27575 4.79564 7.17184 4.89955 7.12508L6.41361 6.44895ZM11.3365 6.7666L9.34895 7.65499C9.27399 7.68839 9.18789 7.68839 9.1122 7.65499L7.12464 6.7666L5.72932 7.39004L9.23102 8.95531L12.7327 7.39004L11.3365 6.7666ZM11.3365 8.6495L9.34895 9.5379C9.27399 9.57203 9.18789 9.57203 9.1122 9.5379L7.12464 8.6495L5.72932 9.27368L9.23102 10.839L12.7327 9.27368L11.3365 8.6495ZM9.23099 3.94114L5.72929 5.50715L9.23099 7.07242L12.7327 5.50715L9.23099 3.94114ZM5.37843 15.2824C5.21811 15.2824 5.08823 15.1525 5.08823 14.993C5.08823 14.8326 5.21811 14.7028 5.37843 14.7028H13.4438C13.6033 14.7028 13.7332 14.8326 13.7332 14.993C13.7332 15.1525 13.6033 15.2824 13.4438 15.2824H5.37843ZM5.37843 13.7631C5.21811 13.7631 5.08823 13.6333 5.08823 13.473C5.08823 13.3134 5.21811 13.1828 5.37843 13.1828H13.4438C13.6033 13.1828 13.7332 13.3134 13.7332 13.473C13.7332 13.6333 13.6033 13.7631 13.4438 13.7631H5.37843Z" fill="white"/>
</svg>
