<svg width="22" height="24" viewBox="0 0 22 24" fill="none" xmlns="http://www.w3.org/2000/svg">
<path d="M11.0003 2.25C11.6878 2.25 12.2722 2.7375 12.4784 3.4125C11.9972 3.3 11.5159 3.225 11.0003 3.225C10.4847 3.225 10.0034 3.3 9.52216 3.4125C9.72841 2.7375 10.3128 2.25 11.0003 2.25ZM5.87832 5.5876C6.53145 5.5876 7.08145 6.1876 7.08145 6.9001C7.08145 7.6126 6.53145 8.2126 5.87832 8.2126C5.2252 8.2126 4.6752 7.6126 4.6752 6.9001C4.64082 6.1876 5.19082 5.5876 5.87832 5.5876ZM11.0003 21.75C10.0722 21.75 9.24716 21.075 8.97225 20.175H13.0285C12.7535 21.075 11.9285 21.75 11.0005 21.75H11.0003ZM18.494 18.1876C18.219 18.4876 17.8753 18.6751 17.4628 18.6751H4.50332C4.1252 18.6751 3.74707 18.5251 3.47207 18.1876C3.19707 17.8876 3.05957 17.4751 3.05957 17.0626C3.09395 16.2376 3.74707 15.5626 4.57207 15.5626H4.74395C5.12207 15.5626 5.43145 15.2251 5.43145 14.8126V10.725C5.43145 10.3875 5.46582 10.05 5.5002 9.7125C5.60332 9.7125 5.70645 9.75 5.80957 9.75C7.25332 9.75 8.3876 8.475 8.3876 6.9376C8.3876 6.4501 8.28448 6.0001 8.07823 5.5876C8.9376 5.0251 9.9001 4.7251 10.9313 4.7251C13.9907 4.7251 16.4657 7.4251 16.4657 10.7627V14.8503C16.4657 15.2628 16.7751 15.6003 17.1532 15.6003H17.3251C18.1157 15.6003 18.8032 16.2753 18.8376 17.1003C18.9064 17.4753 18.7689 17.8878 18.4939 18.1878L18.494 18.1876Z" fill="white"/>
</svg>
