<svg width="19" height="19" viewBox="0 0 19 19" fill="none" xmlns="http://www.w3.org/2000/svg">
<path d="M4.00169 0.665H11.3042C11.4704 0.665 11.6278 0.69543 11.7755 0.756289C11.9232 0.817149 12.0568 0.907695 12.1748 1.02496L16.1952 5.04536C16.3132 5.16337 16.403 5.29697 16.4639 5.44392C16.5247 5.59087 16.5551 5.74897 16.5551 5.91595V16.7794C16.5551 17.2076 16.38 17.5965 16.098 17.8785C15.8167 18.1598 15.427 18.335 14.9988 18.335H4.00094C3.57269 18.335 3.1838 18.1598 2.90176 17.8785C2.62046 17.5972 2.44531 17.2076 2.44531 16.7794V2.2206C2.44531 1.79236 2.62046 1.40272 2.90176 1.12142C3.18305 0.840126 3.57269 0.664978 4.00094 0.664978L4.00169 0.665ZM5.01774 15.7937C4.8604 15.7937 4.73274 15.6661 4.73274 15.5087C4.73274 15.3514 4.8604 15.2238 5.01774 15.2238H11.2239C11.3813 15.2238 11.5089 15.3514 11.5089 15.5087C11.5089 15.6661 11.3813 15.7937 11.2239 15.7937H5.01774ZM5.01774 13.2525C4.8604 13.2525 4.73274 13.1248 4.73274 12.9675C4.73274 12.8102 4.8604 12.6825 5.01774 12.6825H13.9835C14.1409 12.6825 14.2685 12.8102 14.2685 12.9675C14.2685 13.1248 14.1409 13.2525 13.9835 13.2525H5.01774ZM5.01774 10.7113C4.8604 10.7113 4.73274 10.5836 4.73274 10.4263C4.73274 10.2689 4.8604 10.1413 5.01774 10.1413H13.9835C14.1409 10.1413 14.2685 10.2689 14.2685 10.4263C14.2685 10.5836 14.1409 10.7113 13.9835 10.7113H5.01774ZM5.01774 8.17C4.8604 8.17 4.73274 8.04234 4.73274 7.885C4.73274 7.72766 4.8604 7.6 5.01774 7.6H13.9835C14.1409 7.6 14.2685 7.72766 14.2685 7.885C14.2685 8.04234 14.1409 8.17 13.9835 8.17H5.01774ZM5.27157 3.77625C5.11423 3.77625 4.98657 3.64859 4.98657 3.49125C4.98657 3.33391 5.11423 3.20625 5.27157 3.20625H9.15533C9.31267 3.20625 9.44033 3.33391 9.44033 3.49125C9.44033 3.64859 9.31267 3.77625 9.15533 3.77625H5.27157ZM15.9778 5.8083H12.9162C12.5028 5.8083 12.1265 5.63907 11.8542 5.36669C11.5803 5.09431 11.4111 4.71802 11.4111 4.30388V1.24235C11.3769 1.23715 11.3406 1.23492 11.3035 1.23492H4.00096C3.73007 1.23492 3.48365 1.34551 3.30479 1.52437C3.12592 1.70324 3.01534 1.94964 3.01534 2.22055V16.7793C3.01534 17.0502 3.12666 17.2966 3.30479 17.4755C3.48365 17.6543 3.73005 17.7649 4.00096 17.7649H14.9988C15.2697 17.7649 15.5161 17.6536 15.695 17.4755C15.8738 17.2966 15.9852 17.0502 15.9852 16.7793V5.91589C15.9852 5.87878 15.9829 5.84316 15.9777 5.80827L15.9778 5.8083ZM11.9819 1.63796V4.30303C11.9819 4.55983 12.0873 4.7936 12.2565 4.96283C12.425 5.13206 12.6588 5.23745 12.9163 5.23745H15.5814L11.981 1.6371L11.9819 1.63796Z" fill="white"/>
</svg>
