<svg width="19" height="19" viewBox="0 0 19 19" fill="none" xmlns="http://www.w3.org/2000/svg">
<g clip-path="url(#clip0_63_505)">
<path d="M17.3852 18.81H1.6152C1.1402 18.81 0.741211 18.411 0.741211 17.936V13.547C0.741211 13.072 1.1402 12.673 1.6152 12.673C2.0902 12.673 2.48918 13.072 2.48918 13.547V17.043H16.5112V13.547C16.5112 13.072 16.9102 12.673 17.3852 12.673C17.8602 12.673 18.2591 13.072 18.2591 13.547V17.936C18.2591 18.411 17.8791 18.81 17.3852 18.81H17.3852Z" fill="white"/>
<path d="M9.4434 14.212C9.32941 14.212 9.21543 14.193 9.10137 14.136C8.7784 14.003 8.56934 13.68 8.56934 13.3189L8.60731 1.04494C8.60731 0.569944 9.00629 0.170959 9.48129 0.170959C9.95629 0.170959 10.3553 0.569944 10.3553 1.04494L10.3173 11.2479L14.8013 6.95394C15.1433 6.61191 15.7133 6.63098 16.0363 6.97293C16.3783 7.31496 16.3593 7.88496 16.0173 8.20793L10.0515 13.9649C9.89945 14.117 9.67148 14.212 9.44344 14.212L9.4434 14.212Z" fill="white"/>
<path d="M9.44342 14.212C9.21546 14.212 9.00639 14.136 8.83546 13.9649L2.96446 8.26495C2.62242 7.92291 2.60344 7.37198 2.94547 7.02995C3.2875 6.68791 3.83844 6.66893 4.18047 7.01096L10.0515 12.711C10.3935 13.053 10.4125 13.6039 10.0705 13.946C9.89944 14.117 9.67147 14.212 9.44342 14.212Z" fill="white"/>
</g>
<defs>
<clipPath id="clip0_63_505">
<rect width="19" height="19" fill="white"/>
</clipPath>
</defs>
</svg>
