<svg width="19" height="19" viewBox="0 0 19 19" fill="none" xmlns="http://www.w3.org/2000/svg">
<path d="M16.3269 4.26897H8.88271L7.26993 2.35171C7.19466 2.26228 7.08376 2.21063 6.96693 2.21063H1.24935C1.14433 2.21057 1.04365 2.25226 0.96942 2.32654C0.89514 2.40076 0.853454 2.50145 0.853516 2.60647V14.9723C0.854072 15.4541 1.04568 15.916 1.38634 16.2567C1.72701 16.5973 2.1889 16.7889 2.67069 16.7895H16.3269C16.8087 16.7889 17.2706 16.5973 17.6113 16.2567C17.952 15.916 18.1436 15.4541 18.1441 14.9723V6.086C18.1436 5.60426 17.9519 5.14237 17.6112 4.80178C17.2706 4.46111 16.8087 4.26951 16.3269 4.26902L16.3269 4.26897ZM1.64514 3.00224H6.78242L7.84815 4.26897H1.64512L1.64514 3.00224ZM17.3524 14.9722C17.3522 15.2441 17.244 15.5048 17.0518 15.6971C16.8595 15.8893 16.5988 15.9975 16.3269 15.9977H2.67068C2.39879 15.9975 2.13809 15.8893 1.94581 15.6971C1.75358 15.5048 1.64541 15.2441 1.64517 14.9722V5.06057H16.3269C16.5988 5.06088 16.8595 5.16899 17.0517 5.36115C17.244 5.55339 17.3522 5.81402 17.3525 6.08589L17.3524 14.9722Z" fill="white"/>
</svg>
